<?xml version="1.0" encoding="UTF-8"?>
<svg id="Layer_1" xmlns="http://www.w3.org/2000/svg" version="1.1" viewBox="0 0 22 22">
  <!-- Generator: Adobe Illustrator 29.0.1, SVG Export Plug-In . SVG Version: 2.1.0 Build 192)  -->
  <defs>
    <style>
      .st0 {
        fill: #fff;
      }
    </style>
  </defs>
  <path class="st0" d="M7.8,14.9c-.4-.5-.9-.8-1.5-.9s-.4,0-.4-.2,0-.2,0-.3c.2-.2.9-1.2,1.1-1.3s.4-.2.7-.1c.5-.7,1-1.4,1.6-2.1,0-.3-.1-.6,0-.9-.2-.2-.4-.4-.5-.6-.7-.9-.5-1.6,0-2.6s.3-.5.4-.5-.1-.1,0-.3l.8-1.1c0-.2-.2-.3-.2-.6s.5-.8.7-1,.1-.3.2-.3c.1,0,.5,0,.6,0,.6.1,1,.5,1.3,1s.2.4.2.6-.7,1-.7,1c-.2.2-.5.2-.8,0l-1,1.2c-.2.1-.3,0-.4,0s-.3.5-.4.6c-.3.6-.2,1,.3,1.4.6-.9,2-1.1,2.7-.3l-.6.2c-1.2.8-1.6,2.5-.9,3.7,0,0,0,0,0,0,0,0,.2-.3.3-.3-.5-1.4.3-3.2,1.8-3.3l1.7-1.9c1-.2,2.1.6,2,1.6l-1.3,1.5c.2.5.2,1,0,1.5s-.5,1-.9,1.4c1.2.7,2.7,1,3.8,0,1.7-1.5.5-3.5.2-5.3h0c-.3.3-.7.8-1.3.9.5-1.4-1.3-2.8-2.6-2.2,0-.3,0-.5.3-.8.6-.7,1.4-1.4,2-2.1s.8-1.2,1.8-1,1.6,1.2,1.8,1.7,0,1-.3,1.5-.3.3-.3.4c.3,1.2.6,2.5.8,3.7.3,1.5.2,2.7-.9,3.9-1.8,2-4.7,1.4-6.7,0s-.3-.2-.3-.3-.4-.1-.4-.1c-.8.6-1.5,1.2-2.2,1.8,0,.1,0,.2,0,.3s0,.2,0,.3c-.1.2-.8,1-1,1.2s-.3.3-.5.2-.1-.3-.2-.4c-.2-.4-.4-.7-.6-1ZM13.6,9.4c-.7,0-1,1.4-.2,1.6,1.1.4,1.3-1.8.2-1.6Z"/>
  <path class="st0" d="M5.6,19c-.1-.9-.9-1.8-1.7-2.1s-.3,0-.5-.2l1.3-1.6c0,0,.2-.2.4-.2s.3,0,.3,0c0,0,.3-.4.4-.4s.4,0,.5.1c.7.3,1.3.9,1.6,1.6l-.6.7c0,.3,0,.5-.2.7-.3.3-.9.9-1.2,1.2s-.2.1-.3.2Z"/>
  <path class="st0" d="M2.7,20.8c0-.4-.4-.7-.8-.8l.9-2.2c.5-.4,1.3,0,1.7.5s.5.8.3,1.2l-2.1,1.3Z"/>
  <path class="st0" d="M13,3.2c-.3-.8-1-1.3-1.8-1.5s-.2,0-.3,0c0,0,0,0,0,0,.3-.4,1-1.2,1.4-1.3s1.4.3,1.6,1c.1.6-.2.8-.5,1.2s-.5.7-.5.7Z"/>
  <path class="st0" d="M1,21.7l.6-1.4c.3,0,.6.3.7.6h0c0,0-1.1.8-1.1.8h-.2Z"/>
</svg>